<?xml version="1.0" standalone="no"?><!DOCTYPE svg PUBLIC "-//W3C//DTD SVG 1.1//EN" "http://www.w3.org/Graphics/SVG/1.1/DTD/svg11.dtd"><svg t="1609473173252" class="icon" viewBox="0 0 1024 1024" version="1.1" xmlns="http://www.w3.org/2000/svg" p-id="37044" xmlns:xlink="http://www.w3.org/1999/xlink" width="200" height="200"><defs><style type="text/css"></style></defs><path d="M512 0c281.469277 0 511.705872 230.246499 511.705872 511.705872 0 281.497006-230.241547 511.737563-511.705872 511.737563C230.536665 1023.443435 0.294128 793.170197 0.294128 511.705872 0.294128 230.236596 230.540627 0 512 0z m0 945.988828c238.236472 0 434.283946-196.037571 434.283946-434.282956C946.283946 271.845261 751.097068 77.421926 512 77.421926c-239.875466 0-434.252255 195.170043-434.252255 434.283946 0 239.88735 195.150236 434.282956 434.252255 434.282956z m149.827838-430.810863a28.930476 28.930476 0 0 1 7.89292 40.256867c-4.596116 6.619358-11.135257 10.897578-18.538955 12.346429a28.947311 28.947311 0 0 1-21.783273-4.429741c-33.161161-22.214066-71.80181-33.968279-111.864573-33.968278-110.948518 0.122801-200.860472 90.018909-201.013972 200.956534a29.061199 29.061199 0 1 1-58.088728-0.003962c0.034662-104.681718 63.171095-197.712217 157.708875-238.047319a159.035915 159.035915 0 0 1-59.930739-124.29617c0.093091-87.895644 71.323482-159.126035 159.23299-159.219126 87.874847 0.129733 159.073547 71.343288 159.185455 159.227049a158.932921 158.932921 0 0 1-58.672031 123.247412 255.221602 255.221602 0 0 1 45.872031 23.930305zM258.431257 730.422963l0.002971-0.18222-0.002971 0.095071v0.087149z m155.867853-362.460348c0.033671 55.854545 45.286747 101.13535 101.128418 101.204673 55.854545-0.086159 101.107621-45.353099 101.175954-101.193779-0.086159-55.840681-45.330321-101.086824-101.169022-101.176944-55.839691 0.073284-101.083853 45.333292-101.13535 101.16605z m261.56961 254.913609c-10.473718-11.586847-10.020147-29.206778 0.943783-40.150901 10.964921-10.943133 28.585841-11.362043 40.058801-0.951706l74.047876 74.076596h-2.600604c4.902128 10.720309 2.941277 23.809485-5.882553 32.638267l-65.341895 65.276534a29.061199 29.061199 0 1 1-41.053091-41.059033l15.776928-15.736325H577.000232c-15.805648-0.578352-28.172874-13.411033-28.172874-29.044364s12.368217-28.465021 27.990654-29.041393l115.076209-0.002971-16.025501-16.004704z" p-id="37045" fill="#2c2c2c"></path></svg>