<?xml version="1.0" encoding="UTF-8"?>
<!DOCTYPE svg PUBLIC "-//W3C//DTD SVG 1.1//EN" "http://www.w3.org/Graphics/SVG/1.1/DTD/svg11.dtd">
<svg version="1.1" xmlns="http://www.w3.org/2000/svg" xmlns:xlink="http://www.w3.org/1999/xlink" x="0" y="0" width="545" height="486" viewBox="0, 0, 545, 486">
  <g id="Layer_1">
    <path d="M507.715,198.356 C505.913,199.311 504.102,200.241 502.124,201.031 C501.057,201.355 500.215,201.84 498.509,201.738 C497.571,201.593 496.603,201.5 495.629,201.405 C491.718,201.125 487.686,201.086 483.624,200.975 C487.542,199.886 491.549,199.099 495.69,198.99 C496.725,198.945 497.771,198.963 498.831,199.057 C499.156,199.081 500.231,198.708 501.027,198.333 C502.769,197.583 504.522,196.63 506.26,195.678 C509.77,193.8 513.263,191.808 516.878,190.004 C518.676,189.087 520.51,188.22 522.384,187.422 C523.333,187.045 524.289,186.679 525.264,186.356 C526.215,186.099 527.288,185.592 528.29,185.991 C527.797,185.868 527.336,186.163 526.899,186.366 C526.457,186.585 526.023,186.828 525.595,187.086 C524.741,187.6 523.908,188.159 523.081,188.727 L518.06,192.052 C514.703,194.271 511.274,196.384 507.715,198.356 M505.051,296.182 C504.06,296.182 505.302,291.55 502.413,291.011 C500.532,290.66 499.979,291.411 500.101,291.824 C498.294,290.866 500.951,288.528 502.863,289.698 C504.777,290.866 507.792,289.911 508.125,289.961 C509.145,290.124 510.56,291.906 508.434,292.012 C509.643,291.098 508.201,291.259 507.209,291.32 C506.221,291.379 506.042,296.182 505.051,296.182 M486.215,294.887 L485.242,294.928 L483.308,295.002 L479.45,295.197 C476.879,295.362 474.314,295.601 471.762,295.947 C469.217,296.322 466.684,296.809 464.219,297.555 C461.786,298.31 459.31,299.347 457.564,301.283 C459.261,299.301 461.733,298.191 464.161,297.372 C466.621,296.562 469.156,296.01 471.705,295.57 C474.258,295.161 476.829,294.855 479.406,294.627 L486.938,294.093 L487.363,294.729 C486.837,294.892 486.536,294.856 486.215,294.887 M451.031,291.011 C450.304,290.862 449.487,290.809 448.648,290.729 C447.751,290.595 446.848,290.466 445.979,290.207 C444.232,289.719 442.559,288.991 441.024,288.07 C434.814,284.386 430.464,278.419 427.625,272.071 C424.79,265.678 423.462,258.63 423.832,251.701 C424.121,244.771 426.171,237.942 429.794,232.184 C427.149,238.442 425.848,245.115 425.982,251.734 C426.173,258.347 427.648,264.872 430.347,270.842 C433.106,276.742 437.063,282.241 442.455,285.715 C443.786,286.598 445.233,287.264 446.72,287.771 C448.172,288.334 449.74,288.447 451.594,289.064 C453.519,289.734 454.808,291.144 455.892,292.403 C457.006,293.705 458.13,294.969 459.19,296.319 C457.757,295.376 456.423,294.314 455.056,293.309 C453.653,292.332 452.443,291.225 451.031,291.011 M397.825,195.371 C391.413,193.443 384.582,193.238 377.846,193.288 C371.065,193.403 364.357,193.891 357.5,194.444 C350.374,194.96 343.277,193.687 336.586,191.705 C323.138,187.692 311.007,181.093 298.622,175.687 C292.428,172.983 286.231,170.377 279.874,168.408 C273.574,166.433 266.943,165.055 260.329,163.875 C233.89,159.141 206.41,159.518 180.355,166.262 C180.229,166.292 180.106,166.332 179.982,166.365 C167.13,169.769 154.58,174.679 143.277,181.744 C138.947,184.417 134.808,187.433 131.059,190.879 C129.857,191.984 128.694,193.128 127.582,194.326 C123.101,199.255 119.146,205.108 118.276,211.95 C118.458,205.021 122.033,198.587 126.344,193.26 C127.15,192.266 127.995,191.308 128.857,190.365 C132.673,186.199 137.008,182.517 141.601,179.229 C152.445,171.637 164.624,166.108 177.252,162.211 C177.859,162.023 178.458,161.819 179.069,161.641 C192.347,157.645 206.169,155.61 220.007,154.973 C233.86,154.454 247.761,155.467 261.398,157.875 C268.201,159.144 274.96,160.588 281.673,162.738 C288.338,164.876 294.754,167.557 300.986,170.487 C313.462,176.278 325.365,182.97 337.973,187.293 C344.271,189.401 350.788,190.769 357.328,190.655 C364.094,190.458 371.024,190.152 377.892,190.496 C384.75,190.873 391.748,191.509 398.315,193.933 C401.582,195.136 404.68,196.868 407.309,199.124 C409.943,201.375 412.159,204.007 414.27,206.685 C409.705,201.631 404.318,197.164 397.825,195.371 M422.499,397.63 C431.688,406.186 440.007,415.679 447.631,425.649 C451.44,430.649 454.995,435.875 458.098,441.389 C459.602,444.173 461.033,447.017 462.097,450.024 C463.144,452.991 463.979,456.25 463.366,459.367 C463.317,456.221 461.97,453.394 460.547,450.711 C459.076,448.032 457.388,445.468 455.563,442.999 C451.966,438.022 447.984,433.311 443.933,428.665 C439.818,424.072 435.71,419.46 431.4,415.038 C429.264,412.815 427.142,410.563 424.974,408.4 L418.263,402.024 C409.296,393.299 400.644,384.2 392.787,374.403 C384.979,364.619 377.667,354.165 372.896,342.547 C379.876,352.923 387.997,362.212 396.375,371.299 C404.836,380.306 413.541,389.082 422.499,397.63 M467.904,465.968 C468.954,467.327 469.798,468.819 470.537,470.374 C471.227,471.951 471.817,473.596 472.06,475.355 C472.318,477.081 472.346,478.964 471.597,480.616 C471.064,478.921 470.407,477.486 469.769,476.011 L467.758,471.637 C466.462,468.673 465.085,465.728 464.249,462.291 C465.708,463.325 466.871,464.604 467.904,465.968 M460.521,481.301 C458.644,480.069 457.075,478.471 455.7,476.75 C454.367,474.994 453.23,473.083 452.462,471.003 C451.692,468.95 451.193,466.68 451.555,464.485 C452.453,466.492 453.493,468.221 454.587,469.943 C455.706,471.637 456.847,473.309 458.113,474.882 C459.332,476.486 460.649,478.002 462.031,479.458 C463.453,480.885 464.89,482.243 466.826,483.289 C464.59,483.504 462.351,482.52 460.521,481.301 M212.153,319.807 C210.74,334.45 207.401,348.72 203.874,362.8 L198.407,383.781 L197.139,388.989 C196.795,390.501 196.678,392.08 196.689,393.742 C196.753,397.059 197.311,400.51 198.066,403.932 C199.674,410.771 202.05,417.56 204.882,424.14 C206.264,427.453 207.814,430.695 209.489,433.876 C210.327,435.466 211.212,437.035 212.175,438.552 C213.133,440.07 214.138,441.582 215.498,442.79 C212.425,440.758 210.215,437.692 208.042,434.774 C205.904,431.792 203.994,428.66 202.182,425.466 C198.644,419.039 195.571,412.318 193.445,405.144 C192.375,401.56 191.535,397.854 191.332,393.923 C191.236,391.966 191.297,389.903 191.677,387.862 L192.768,382.458 C194.376,375.319 196.214,368.306 197.962,361.287 C201.592,347.294 205.124,333.331 207.45,319.208 C208.532,312.148 209.38,305.036 209.237,297.927 C209.084,290.875 208.121,283.613 204.301,277.36 C209.267,282.851 211.244,290.462 212.206,297.716 C213.072,305.08 212.855,312.499 212.153,319.807 M445.903,217.271 C446.159,213.509 447.685,210.441 449.271,207.511 C450.945,204.627 452.807,201.895 454.922,199.376 C457.019,196.845 459.235,194.424 461.626,192.178 C462.849,191.084 464.109,190.027 465.446,189.066 C466.118,188.588 466.804,188.132 467.542,187.749 C467.918,187.57 468.3,187.399 468.708,187.295 C469.094,187.193 469.624,187.156 469.88,187.516 C469.164,187.028 468.388,187.753 467.781,188.139 C467.14,188.608 466.538,189.136 465.958,189.689 C464.802,190.791 463.726,191.99 462.693,193.215 C460.577,195.623 458.601,198.155 456.788,200.786 C455.003,203.434 453.232,206.087 451.804,208.888 C450.386,211.638 449.057,214.615 448.953,217.372 C448.896,218.738 449.23,219.848 450.059,220.529 C450.857,221.194 452.479,221.71 453.298,221.451 C454.416,221.185 455.676,220.269 456.786,219.264 C457.906,218.234 458.975,217.075 460.025,215.888 L460.857,214.931 C461.204,214.484 462.003,214.026 462.761,214.077 C464.286,214.26 464.825,215.11 465.458,215.718 C466.612,217.055 467.444,218.456 468.294,219.851 C469.105,221.26 469.877,222.68 470.775,223.989 C471.226,224.632 471.713,225.276 472.322,225.695 C472.929,226.217 473.731,225.725 474.079,224.963 C473.929,225.332 473.791,225.748 473.423,226.02 C473.065,226.318 472.512,226.284 472.109,226.105 C471.306,225.713 470.715,225.094 470.146,224.497 C469.023,223.273 468.047,221.958 467.05,220.683 C466.084,219.403 465.133,218.079 464.065,217.053 C463.58,216.556 462.868,216.123 462.726,216.215 C462.683,216.257 462.687,216.204 462.545,216.408 L461.865,217.349 C460.892,218.689 459.859,220.002 458.627,221.204 C457.388,222.386 456.064,223.609 454.04,224.246 C453.042,224.596 451.67,224.416 450.879,224.171 C449.96,223.929 449.008,223.51 448.169,222.838 C446.402,221.458 445.8,219.097 445.903,217.271 M485.602,290.454 C484.123,290.577 483.082,290.338 481.833,290.241 L478.238,289.849 C475.84,289.594 473.443,289.37 471.039,289.24 C468.636,289.107 466.225,289.033 463.826,289.211 C461.48,289.436 458.906,289.65 457.055,291.269 C458.865,289.597 461.46,289.308 463.81,289.022 C466.218,288.779 468.64,288.79 471.053,288.858 C473.471,288.924 475.882,289.087 478.29,289.279 C480.631,289.429 483.246,289.78 485.341,289.737 L485.602,290.454 z M479.59,283.235 C481.732,283.935 483.865,284.794 485.718,286.231 L485.224,286.812 C483.559,285.443 481.494,284.521 479.406,283.777 C477.308,283.033 475.146,282.446 472.968,281.938 C468.606,280.937 464.173,280.227 459.728,279.648 C464.188,280.102 468.642,280.684 473.049,281.565 C475.251,282.014 477.442,282.541 479.59,283.235 M485.333,267.238 C484.714,267.442 483.838,267.513 483.065,267.393 C482.269,267.31 481.716,267.052 481.316,266.666 C480.865,266.248 480.76,265.154 480.823,263.869 L487.312,265.142 C486.72,266.292 485.995,267.016 485.333,267.238 M520.272,263.869 C519.915,264.758 519.496,265.597 519.012,266.298 C518.761,266.639 518.464,266.921 518.163,267.065 C517.835,267.234 517.686,267.253 517.149,267.244 C516.25,267.279 515.622,267.183 514.991,266.784 C514.328,266.409 513.775,265.667 513.114,264.92 L520.272,263.869 z M16.474,111.33 C11.835,102.838 9.191,93.309 8.187,83.675 C6.308,64.372 12.104,44.21 24.773,29.227 C31.162,21.794 39.494,16.048 48.644,12.609 C57.781,9.124 67.723,7.873 77.402,8.815 C87.077,9.742 96.572,12.772 104.774,17.939 C112.924,23.146 119.737,30.484 123.875,39.139 C119.132,30.818 112.208,23.872 103.998,19.208 C95.854,14.44 86.577,11.763 77.216,11.147 C67.868,10.597 58.336,11.739 49.631,15.203 C40.911,18.585 33.093,24.094 27.082,31.222 C14.814,45.374 9.175,64.773 10.528,83.476 C11.221,92.835 13.526,102.192 17.81,110.654 C21.93,119.204 27.709,126.863 34.289,133.815 C27.227,127.36 21.12,119.804 16.474,111.33 M535.435,300.426 C532.977,299.619 530.44,299.063 527.892,298.625 C525.337,298.213 522.767,297.91 520.191,297.68 L514.952,297.31 C515.323,296.314 515.638,295.058 515.885,293.489 C516.515,293.432 517.113,293.344 517.763,293.292 L521.36,292.903 C523.755,292.649 526.153,292.422 528.558,292.294 C530.959,292.16 533.372,292.087 535.772,292.266 C538.116,292.491 540.692,292.705 542.542,294.326 C540.732,292.653 538.137,292.363 535.787,292.075 C533.378,291.832 530.955,291.843 528.542,291.912 C526.125,291.977 523.713,292.142 521.306,292.332 C519.578,292.445 517.703,292.665 515.996,292.752 C516.1,291.976 516.191,291.135 516.262,290.212 C516.308,289.643 516.388,289.061 516.473,288.479 C517.65,287.827 518.911,287.288 520.191,286.832 C522.29,286.085 524.451,285.5 526.627,284.991 C530.992,283.989 535.422,283.28 539.87,282.705 C535.409,283.154 530.955,283.737 526.547,284.619 C524.346,285.066 522.156,285.594 520.005,286.29 C518.856,286.665 517.714,287.095 516.611,287.626 C516.643,287.441 516.684,287.254 516.72,287.066 C518.738,276.607 526.043,264.285 524.598,255.47 C523.592,249.338 518.364,227.219 518.364,213.476 C518.364,199.734 534.556,185.027 532.617,184.59 C518.491,181.41 498.129,195.916 495.076,196.298 C492.02,196.68 487.822,196.68 480.188,196.68 C472.552,196.68 475.606,184.861 474.079,183.183 C470.985,179.782 460.717,188.153 454.227,193.88 C448.882,189.297 435.91,201.131 410.891,193.001 C396.639,187.402 395.705,183.996 376.312,183.352 C317.267,181.39 320.498,159.085 264.365,149.086 C213.716,140.065 181.109,145.979 159.094,155.25 C153.589,155.28 146.849,154.506 140.381,153.416 C132.972,152.133 125.472,150.382 118.086,148.222 C103.328,143.91 88.865,138.125 75.954,130.689 C63,123.251 51.779,114.17 44.828,103.24 C37.606,92.068 33.891,78.478 35.106,65.743 C36.234,52.975 42.451,41.824 52.581,36.188 C53.769,35.522 55.32,34.715 56.862,34.059 C58.388,33.37 59.934,32.794 61.484,32.258 C64.589,31.225 67.73,30.489 70.877,30.121 C77.165,29.372 83.498,30.037 89.458,32.189 C95.412,34.308 100.994,37.908 105.458,42.533 C109.917,47.106 113.268,52.848 114.369,58.163 C114.934,60.805 114.922,63.238 114.413,65.198 C114.295,65.703 114.131,66.145 113.953,66.626 C113.615,67.321 113.31,68.056 112.947,68.698 C112.25,70.023 111.5,71.237 110.697,72.246 C109.085,74.3 107.393,75.626 105.55,76.37 C104.626,76.747 103.632,76.985 102.581,77.074 C102.059,77.117 101.523,77.122 101.01,77.093 L100.292,77.023 L100.005,76.982 C100.025,76.999 99.698,76.903 100.158,77.057 C94.671,75.179 88.702,78.104 86.822,83.59 C84.943,89.076 87.869,95.046 93.354,96.926 C94.31,97.243 94.492,97.277 95.015,97.42 L96.257,97.712 C97.068,97.881 97.852,98.014 98.634,98.114 C100.198,98.312 101.754,98.397 103.317,98.371 C106.438,98.314 109.599,97.795 112.617,96.802 C118.708,94.84 123.914,90.939 127.667,86.62 C129.58,84.456 131.156,82.175 132.527,79.877 C133.241,78.727 133.819,77.57 134.439,76.407 C135.127,74.992 135.764,73.5 136.246,72.004 C138.245,65.973 138.407,59.826 137.574,54.253 C135.823,43.042 130.582,33.675 123.917,25.879 C117.193,18.103 108.714,11.904 99.142,7.857 C89.595,3.777 78.947,2.034 68.595,2.7 C63.416,3.015 58.327,3.916 53.424,5.255 C50.983,5.941 48.569,6.707 46.233,7.603 C43.884,8.469 41.65,9.435 39.133,10.695 C29.386,15.574 20.924,23.33 15.086,32.421 C9.187,41.513 5.737,51.746 4.306,61.966 C1.454,82.491 6.332,103.068 16.371,120.415 C18.875,124.681 21.766,129.042 24.98,132.883 C28.148,136.792 31.542,140.383 35.081,143.686 C42.152,150.334 49.733,155.978 57.552,160.923 C73.205,170.838 89.72,178.212 106.765,184.025 C110.388,185.254 114.045,186.385 117.736,187.45 C103.757,213.763 100.133,261.766 122.604,297.719 C124.794,301.226 126.899,304.57 128.93,307.796 C123.549,325.357 114.619,348.023 108.351,353.203 C99.57,360.456 98.062,371.698 102.242,381.452 C109.114,397.487 109.114,417.719 104.715,434.692 C103.291,440.184 98.042,449.406 110.258,452.08 C122.476,454.751 141.865,453.088 142.2,448.834 C143.219,435.917 128.712,441.006 128.966,426.5 C129.073,420.394 129.347,383.361 132.401,381.452 C134.741,379.992 146.706,368.021 160.753,365.573 C164.296,375.189 166.672,385.146 167.907,396.724 C171.724,432.608 198.027,452.931 202.182,468.985 C240.95,469.768 244.486,471.819 241.458,464.678 C240.665,462.803 241.376,456.992 229.667,451.902 C217.96,446.812 220.08,443.806 207.353,421.02 C194.628,398.232 208.394,372.877 212.465,345.901 C232.806,350.148 266.335,349.54 279.125,346.077 C290.845,342.902 319.847,357.784 319.847,357.784 C319.905,361.658 321.121,365.439 323.236,369.134 C322.867,387.404 325.096,420.958 323.41,429.808 C321.375,440.499 316.868,474.226 325.751,477.656 C340.08,483.192 363.177,479.374 364.705,476.322 C366.231,473.267 365.15,468.495 362.605,466.458 C360.06,464.421 346.125,463.658 346.379,447.116 C346.634,430.574 351.915,422.765 353.188,416.065 C353.814,412.773 355.667,405.404 357.392,398.518 C383.731,414.672 415.476,429.044 422.668,442.281 C435.393,465.696 440.293,480.138 463.39,483.956 C486.486,487.773 473.315,453.988 468.544,445.208 C463.771,436.426 440.484,409.704 431.322,399.012 C422.16,388.325 399.508,370.763 401.291,361.855 L401.925,360.075 C401.925,360.075 423.304,336.024 431.704,325.716 C440.102,315.409 455.374,302.044 461.863,301.665 C466.094,301.416 470.574,302.379 474.579,303.559 C475.119,303.253 475.667,302.962 476.22,302.684 C478.527,301.525 480.965,300.643 483.452,299.951 C485.973,299.288 488.406,298.696 491.16,298.615 L491.046,299.369 C488.667,299.396 486.038,299.906 483.598,300.504 C481.126,301.127 478.694,301.939 476.384,303.028 C475.927,303.234 475.477,303.464 475.028,303.695 C476.995,304.289 478.849,304.92 480.474,305.482 C493.511,309.99 498.428,303.055 504.519,300.901 C506.446,300.22 508.703,301.112 510.734,301.001 C512.186,301.334 513.652,301.755 515.049,302.197 C517.632,303.026 520.162,304.045 522.573,305.294 C524.971,306.555 527.327,307.958 529.367,309.764 C531.413,311.548 533.208,313.638 534.512,316.043 C533.266,313.607 531.512,311.464 529.494,309.619 C527.479,307.753 525.139,306.286 522.751,304.956 C520.347,303.64 517.822,302.553 515.231,301.655 C514.205,301.317 513.198,300.994 512.18,300.693 C513.124,300.312 513.977,299.518 514.67,297.993 L516.289,298.054 L520.148,298.251 C522.718,298.415 525.283,298.655 527.833,299 C530.38,299.376 532.913,299.866 535.376,300.607 C537.811,301.364 540.287,302.401 542.034,304.337 C540.334,302.357 537.865,301.245 535.435,300.426" fill="#0B0B09"/>
  </g>
</svg>
