<?xml version="1.0" encoding="utf-8"?>
<!DOCTYPE svg PUBLIC "-//W3C//DTD SVG 1.1//EN" "http://www.w3.org/Graphics/SVG/1.1/DTD/svg11.dtd">
<svg version="1.1" id="Layer_1" xmlns="http://www.w3.org/2000/svg" xmlns:xlink="http://www.w3.org/1999/xlink" x="0px" y="0px"
	 viewBox="0 0 67.6978 77.4083" enable-background="new 0 0 67.6978 77.4083" xml:space="preserve">
<g>
	<path stroke="#000000" stroke-width="0.25" stroke-miterlimit="10" d="M20.5013,73.624c0,0-10,0.5-13.1665-1.667
		c-3.1665-2.167-2.667-6.166-2.8335-7.333C4.3348,63.457,4.6678,49.291,9.4339,39.79c4.7661-9.4995,1.5674-11.4995,1.5674-11.4995
		C4.8348,25.457,9.6678,14.624,9.6678,14.624c-2-4.5,0-10.8335,0-10.8335s5,2.666,6,5.333c0,0,7.167-1.833,9.167,0.167
		c0,0,0.7705-4,5.6352-5.5c0,0,1.9995,6.3335,0,10.8335c0,0,4.8335,10.833-1.3335,13.6665c0,0-3.1987,2,1.5674,11.4995
		c4.7656,9.501,5.0996,23.667,4.9317,24.834c-0.1661,1.167,0.3339,5.166-2.8321,7.333c-3.167,2.167-13.167,1.667-13.167,1.667"/>
	<g>
		<g>
			<path d="M27.1732,73.5117c9.3637-1.2168,17.4829-5.6777,21.0239-14.7881c1.8945-4.874,0.9746-9.9257-1.0332-14.5537
				c-1.4961-3.4492-3.9004-6.9873,1.2471-8.9731c2.582-0.9966,2.5322,6.1421,2.5947,7.4009
				c0.0976,1.9726,2.7803,3.5781,4.2676,1.7675c0.9619-1.1709,2.3789-2.2119,3.8662-1.0068
				c2.2988,1.8633-1.7901,4.0557-2.7764,4.5762c-2.4316,1.2832-5.168,1.9072-7.6191,3.1718
				c-2.8663,1.4786-0.337,5.792,2.5234,4.3165c5.4707-2.8213,13.0547-3.6885,13.2705-11.2842
				c0.2002-7.0845-9.2031-7.6861-12.7998-3.3086c1.4229,0.5888,2.8447,1.1787,4.2676,1.7676
				c-0.1953-3.9483-0.2178-10.1241-4.6309-11.8946c-4.4492-1.7846-9.7656,1.771-11.1992,6.1221
				c-0.7803,2.3701-0.3232,4.1533,0.668,6.3877c2.0478,4.6113,4.1269,7.541,2.916,12.9199
				c-1.7041,7.5723-9.5332,11.4619-16.5864,12.3789C24.0223,68.9209,23.9822,73.9268,27.1732,73.5117L27.1732,73.5117z"/>
		</g>
	</g>
	<g>
		<g>
			<path d="M3.4471,20.6577c2.0542,0.4873,4.1489,0.6685,6.248,0.8433c0.2837,0.0234,0.7691-0.3799,0.2793-0.4209
				c-2.0449-0.1704-4.0849-0.3496-6.0859-0.8238C3.6512,20.2002,3.0325,20.5596,3.4471,20.6577L3.4471,20.6577z"/>
		</g>
	</g>
	<g>
		<g>
			<path d="M3.2708,22.9551c2.5918,0.1333,5.1279-0.1807,7.6694-0.6748c0.3038-0.0596,0.627-0.4116,0.1221-0.3135
				c-2.4272,0.4727-4.8525,0.7866-7.3305,0.6592C3.556,22.6172,2.8939,22.9355,3.2708,22.9551L3.2708,22.9551z"/>
		</g>
	</g>
	<g>
		<g>
			<path d="M3.8704,25.9233c2.4986-0.5473,4.7637-1.684,7.0952-2.6972c0.4693-0.2041,0.0274-0.3306-0.2617-0.2051
				c-2.269,0.9863-4.4721,2.1035-6.9048,2.6367C3.3655,25.7524,3.4437,26.0171,3.8704,25.9233L3.8704,25.9233z"/>
		</g>
	</g>
	<g>
		<g>
			<path d="M27.7845,21.8203c2.6133-0.2109,5.1089-0.8784,7.5249-1.8848c0.4687-0.1943,0.0391-0.4248-0.2852-0.29
				c-2.2959,0.9561-4.6562,1.5806-7.1391,1.7813C27.5325,21.4551,27.2816,21.8608,27.7845,21.8203L27.7845,21.8203z"/>
		</g>
	</g>
	<g>
		<g>
			<path d="M29.5174,22.96c2.1387,0.0097,4.2686,0.1069,6.2822-0.7276c0.4727-0.1963,0.0293-0.3398-0.2656-0.2178
				c-1.8203,0.7549-3.7881,0.6153-5.7158,0.6065C29.5945,22.6201,29.032,22.9575,29.5174,22.96L29.5174,22.96z"/>
		</g>
	</g>
	<g>
		<g>
			<path d="M29.5985,24.5996c2.3339,0.0122,4.666,0.1543,7,0.1665c0.1464,0.001,0.8242-0.2832,0.4726-0.2851
				c-2.334-0.0123-4.666-0.1543-7-0.1665C29.9256,24.3135,29.2474,24.5977,29.5985,24.5996L29.5985,24.5996z"/>
		</g>
	</g>
</g>
</svg>
